# xmcd
#
# Track frame offsets:
#	150
#	18597
#	34404
#	53337
#	70772
#	85601
#	105928
#	129422
#	150277
#	170959
#	190515
#	212350
#
# Disc length: 3031 seconds
# Revision: 1
# Processed by: cddbd v1.5.2PL0 Copyright (c) Steve Scherf et al.
# Submitted via: dBpowerAMP V12.0
#
DISCID=890bd50c
DTITLE=Musiq Soulchild - Onmyradio
DYEAR=2008
DGENRE=R&B
TTITLE0=Backagain
TTITLE1=Until
TTITLE2=Ifuleave (feat. Mary J. Blige)
TTITLE3=Deserveumore
TTITLE4=Special
TTITLE5=Dearjohn
TTITLE6=Loveofmylife
TTITLE7=Moneyright
TTITLE8=Someone
TTITLE9=Iwannabe (feat. Damian Marley)
TTITLE10=Sobeautiful
TTITLE11=Radio
EXTD=
EXTT0=
EXTT1=
EXTT2=
EXTT3=
EXTT4=
EXTT5=
EXTT6=
EXTT7=
EXTT8=
EXTT9=
EXTT10=
EXTT11=
PLAYORDER=
